PathFileType	4	(X/Y/Z)	Patient4_TMGait_0pt3_03_right_05.trc.trc
DataRate	CameraRate	NumFrames	NumMarkers	Units	OrigDataRate	OrigDataStartFrame	OrigNumFrames
51.851851851852	51.851851851852	4	33	mm	51.851851851852	53	       141
Frame#	Time	Sacral			L.Shoulder			Chest			R.Shoulder			Neck			R.ASIS			L.ASIS			R.Thigh.Superior			R.Thigh.Lateral			R.Thigh.Inferior			R.Patella			L.Thigh.Superior			L.Thigh.Lateral			L.Thigh.Inferior			L.Patella			L.Shank.Superior			L.Shank.Lateral			L.Shank.Inferior			R.Shank.Superior			R.Shank.Lateral			R.Shank.Inferior			R.Heel			R.Midfoot.Superior			R.Midfoot.Lateral			R.Toe			L.Heel			L.Midfoot.Lateral			L.Midfoot.Superior			L.Toe			L.Elbow			L.Wrist			R.Elbow			R.Wrist			
		X1	Y1	Z1	X2	Y2	Z2	X3	Y3	Z3	X4	Y4	Z4	X5	Y5	Z5	X6	Y6	Z6	X7	Y7	Z7	X8	Y8	Z8	X9	Y9	Z9	X10	Y10	Z10	X11	Y11	Z11	X12	Y12	Z12	X13	Y13	Z13	X14	Y14	Z14	X15	Y15	Z15	X16	Y16	Z16	X17	Y17	Z17	X18	Y18	Z18	X19	Y19	Z19	X20	Y20	Z20	X21	Y21	Z21	X22	Y22	Z22	X23	Y23	Z23	X24	Y24	Z24	X25	Y25	Z25	X26	Y26	Z26	X27	Y27	Z27	X28	Y28	Z28	X29	Y29	Z29	X30	Y30	Z30	X31	Y31	Z31	X32	Y32	Z32	X33	Y33	Z33	

53	10.352857142857	742.087616068216	987.956111010147	573.050640746163	933.010688440309	1416.020693595144	391.475413815275	1030.855099088104	1344.050109502388	554.198661670230	947.188832944540	1417.030695754682	727.382868378499	908.589240819940	1476.592636833398	550.115416226738	977.245561593292	920.860079495386	682.725491023544	953.065215280579	948.620743772657	410.932154275543	1028.063101411214	723.965990498774	631.792616066406	954.384961168249	605.248143876540	681.457768523441	1029.655351445458	562.555765343550	592.598626232586	1032.604224587578	464.626975173001	591.117959227798	1037.910242673729	761.502209532303	443.783365049039	995.223882269873	635.170328754036	364.662357326306	1091.862988233663	570.956389554845	435.472210593608	1102.789962054620	481.497395364305	423.558384445775	1036.644523187384	417.607841043749	407.014914198709	895.669334865204	374.834882199393	357.158722337081	890.108621404699	240.441767022430	398.714949064343	981.593666684610	379.646256404845	597.217220095757	894.245338052337	290.156014372755	661.826968220918	906.572174399066	192.868876604088	593.252979602646	740.014001047331	45.232950935007	572.560750310491	913.624767834594	96.145723654148	600.312931746815	825.951936312535	38.039063872223	643.169761106281	1033.767604116359	40.287779923342	625.296045384677	704.660162177189	159.827823061819	435.286827006894	762.084541039897	130.255746834750	347.800536863562	866.948011408860	143.462485292888	367.285464712828	951.137451324214	42.831931018416	320.732897577867	953.180368668286	1061.089758437683	280.260877294460	1067.766761838882	827.326543570776	276.972634379796	919.575981397877	1067.349362027053	848.439470187931	1046.069652258728	842.552568102472	883.592897435699	
54	10.372142857143	741.004393011568	986.323853412756	576.989305277886	927.930649617431	1413.700928239620	390.874006507507	1028.969641106670	1342.798422904409	552.102582115324	948.553637234061	1416.319015027576	726.720668864505	906.846961990748	1475.292393419234	549.609868587373	977.700000653329	919.578184999231	682.834900598762	949.616490660408	947.738349589848	411.398913744147	1027.618132885677	722.510314481934	631.059708681206	954.719423855566	603.630298057247	681.322490991176	1028.841548021920	561.142651872013	591.401359825587	1031.456265590182	462.845807458515	589.695861790544	1037.054597570352	763.317674087198	444.095456029773	996.468260243987	636.520066711733	364.880509605712	1094.576227028289	574.098868364528	435.135460427348	1107.738336177195	485.331369876429	422.797218601407	1044.001269139378	419.814143324643	406.270174750902	904.606487721059	371.332020957450	357.684734871417	905.571142751378	236.576367957791	398.457670789528	979.411601544783	378.108390687506	596.290136535821	891.546558284074	289.454773700996	661.402980512781	902.333317578667	192.093404175902	592.783480404314	734.302186713448	45.434242827815	572.595250201518	907.884881025106	96.049891354218	600.133952683007	820.241631191487	38.103613661542	643.173839935634	1028.031489688961	40.098377129651	625.301325984373	724.580972928814	147.081451150237	436.823510529280	782.259652450446	121.142111867196	348.287007497266	886.464109575408	139.215564375157	366.647959893651	974.894723774740	43.462073571924	318.090966499472	935.955266472158	1056.851427150339	283.272120329237	1034.010610768147	815.617121466505	279.384591592259	931.856210830026	1065.862770746965	848.703905688888	1076.338168684287	851.707036810690	879.240395249342	
55	10.391428571429	740.080144693213	985.362993963935	580.630012629829	923.064668015470	1411.913046789486	390.154815953543	1027.289736099957	1341.992013310329	549.774640674705	950.226231156261	1416.135408554979	725.756952246658	905.356624391904	1474.456859817234	548.930093982076	978.057909260510	918.699290070255	682.780065620791	946.309098901355	947.237843491818	411.737011241038	1026.663288633174	721.298347509745	630.413010184353	954.259452705844	602.460980329718	681.356590913639	1027.193181073508	559.970889296360	590.480975502058	1029.354324189770	461.438128392414	588.627495258661	1035.705283113636	765.141670228212	444.159443347689	996.789955851140	638.034370742824	364.718525561196	1096.177963651750	577.160559905169	434.291604980539	1111.479685663911	489.343463122542	421.601565442661	1050.519624729989	422.223323139498	405.137352324807	913.430006232828	367.315119095384	357.402072811230	921.462483707502	232.526602694449	397.631017313816	976.493607794277	376.956049195877	595.628384060126	888.301233865483	288.947020218365	661.191216695154	897.797724492294	191.567223632974	592.494231902000	728.574155726142	45.704264477860	572.668630375888	902.158960154170	95.989049652183	600.033414709441	814.528842137549	38.195658794482	643.207155614623	1022.282178735365	39.911606126790	625.307555061108	745.616770361918	133.689907877234	437.239644627592	803.852614378276	111.301777390918	348.028815527203	907.062177873098	134.643730308879	365.616749841570	1000.038595277972	44.114225063559	315.821787689852	918.005202889173	1053.789958973305	285.996049128102	1000.011846840317	806.585947772415	282.183400280937	944.477837487465	1065.350450016484	848.501254108934	1106.621923250943	863.746929320460	873.609859737918	
56	10.410714285714	739.298721582728	985.137375413388	583.918579944872	918.465333798992	1410.728975956696	389.325382900855	1025.833608275380	1341.675151216254	547.232559824827	952.203770452381	1416.528227959592	724.487492025391	904.136825834770	1474.132027669434	548.090877172265	978.307999251627	918.267599911830	682.568128706782	943.181085813183	947.186037786642	411.939287728786	1025.197697891511	720.370037429272	629.867548472096	952.966977182890	601.776373013050	681.561593136663	1024.695271854953	559.073038213435	589.858958505564	1026.280986030043	460.439393161502	587.937792761453	1033.898140634821	766.973457890972	444.044553983321	996.224239944780	639.706614622851	364.221021042377	1096.648653278289	580.085919606344	433.052602584465	1113.962851914715	493.472265758920	420.098806409572	1056.090876690857	424.836633488837	403.714219138246	922.092612064677	363.014703250206	356.296981736514	937.507043197653	228.592191680850	396.261493480653	972.828152819691	376.224398688922	595.250474158581	884.492318329739	288.658815921319	661.202535345426	892.957354951789	191.313546100231	592.393411089047	722.829298523475	46.055852527795	572.785714270265	896.455559820072	95.970759406149	600.023284939768	808.812047471984	38.322530322043	643.274123396760	1016.517619813459	39.731655897409	625.315561408941	767.420845472212	120.283917300442	436.447018296290	826.536400427899	101.283460565538	346.982707110418	928.388118301037	130.100858116620	364.215821271860	1026.047811233944	44.988033629635	314.034385572845	899.564620760001	1052.065558430101	288.412148253062	966.213269967057	800.277871159559	285.356429154699	957.421308537486	1065.891647242085	847.855262759274	1136.444566281274	878.715195507603	866.802425339779	
